<svg width="44" height="56" viewBox="0 0 44 56" fill="none" xmlns="http://www.w3.org/2000/svg">
<path d="M26.4369 4.63592C27.4714 7.19627 25.992 10.2084 25.992 10.2084C26.0578 10.1818 22.8355 9.0693 21.801 6.50895C20.7666 3.9486 22.3117 0.909955 22.246 0.936515C22.1802 0.963075 25.4025 2.07557 26.4369 4.63592Z" fill="#38C256"/>
<path fill-rule="evenodd" clip-rule="evenodd" d="M32.7761 4.05279C33.0231 4.54677 32.8229 5.14744 32.3289 5.39443C30.8588 6.12949 30.0172 6.67763 29.3493 7.49498C28.6651 8.33224 28.0976 9.53294 27.3775 11.7115C27.2041 12.2359 26.6385 12.5205 26.1141 12.3472C25.5898 12.1738 25.3052 11.6082 25.4785 11.0838C26.2121 8.86475 26.8714 7.36661 27.8006 6.22945C28.7461 5.07238 29.9046 4.37052 31.4345 3.60558C31.9284 3.35859 32.5291 3.55881 32.7761 4.05279Z" fill="#592C13"/>
<path d="M21.952 55.64C18.7947 55.64 15.872 55.064 13.184 53.912C10.5387 52.76 8.21333 51.16 6.208 49.112C4.24533 47.0213 2.70933 44.5893 1.6 41.816C0.533333 39 0 35.928 0 32.6C0 29.272 0.533333 26.2213 1.6 23.448C2.70933 20.632 4.24533 18.2 6.208 16.152C8.21333 14.0613 10.5387 12.44 13.184 11.288C15.872 10.136 18.7947 9.56 21.952 9.56C25.1093 9.56 28.0107 10.136 30.656 11.288C33.344 12.44 35.6693 14.0613 37.632 16.152C39.6373 18.2427 41.1733 20.696 42.24 23.512C43.3493 26.2853 43.904 29.3147 43.904 32.6C43.904 35.8853 43.3493 38.936 42.24 41.752C41.1733 44.5253 39.6373 46.9573 37.632 49.048C35.6693 51.1387 33.344 52.76 30.656 53.912C28.0107 55.064 25.1093 55.64 21.952 55.64ZM21.952 48.92C24.128 48.92 26.112 48.5147 27.904 47.704C29.7387 46.8933 31.3173 45.7627 32.64 44.312C33.9627 42.8187 34.9867 41.0907 35.712 39.128C36.48 37.1227 36.864 34.9467 36.864 32.6C36.864 30.2533 36.48 28.0987 35.712 26.136C34.9867 24.1307 33.9627 22.4027 32.64 20.952C31.3173 19.4587 29.7387 18.3067 27.904 17.496C26.112 16.6853 24.128 16.28 21.952 16.28C19.776 16.28 17.7707 16.6853 15.936 17.496C14.144 18.3067 12.5653 19.4373 11.2 20.888C9.87733 22.3387 8.85333 24.0667 8.128 26.072C7.40267 28.0347 7.04 30.2107 7.04 32.6C7.04 35.7573 7.68 38.5733 8.96 41.048C10.24 43.48 11.9893 45.4 14.208 46.808C16.4693 48.216 19.0507 48.92 21.952 48.92Z" fill="white"/>
<path d="M23.98 50.184C34.024 50.184 42.196 42.012 42.196 31.968C42.196 21.924 34.024 13.752 23.98 13.752C13.936 13.752 5.76401 21.924 5.76401 31.968C5.76401 42.012 13.936 50.184 23.98 50.184Z" fill="white"/>
</svg>
